<?xml version="1.0" encoding="UTF-8" standalone="no"?>
<svg
   xmlns:dc="http://purl.org/dc/elements/1.1/"
   xmlns:cc="http://creativecommons.org/ns#"
   xmlns:rdf="http://www.w3.org/1999/02/22-rdf-syntax-ns#"
   xmlns:svg="http://www.w3.org/2000/svg"
   xmlns="http://www.w3.org/2000/svg"
   xmlns:sodipodi="http://sodipodi.sourceforge.net/DTD/sodipodi-0.dtd"
   xmlns:inkscape="http://www.inkscape.org/namespaces/inkscape"
   viewBox="0 0 105.84 128.05"
   version="1.1"
   id="svg60"
   sodipodi:docname="CAMION.svg"
   inkscape:version="0.92.1 r15371">
  <metadata
     id="metadata64">
    <rdf:RDF>
      <cc:Work
         rdf:about="">
        <dc:format>image/svg+xml</dc:format>
        <dc:type
           rdf:resource="http://purl.org/dc/dcmitype/StillImage" />
      </cc:Work>
    </rdf:RDF>
  </metadata>
  <sodipodi:namedview
     pagecolor="#ffffff"
     bordercolor="#666666"
     borderopacity="1"
     objecttolerance="10"
     gridtolerance="10"
     guidetolerance="10"
     inkscape:pageopacity="0"
     inkscape:pageshadow="2"
     inkscape:window-width="1366"
     inkscape:window-height="705"
     id="namedview62"
     showgrid="false"
     inkscape:zoom="3.68606"
     inkscape:cx="48.389225"
     inkscape:cy="84.085577"
     inkscape:window-x="-8"
     inkscape:window-y="-8"
     inkscape:window-maximized="1"
     inkscape:current-layer="Layer_2" />
  <defs
     id="defs44">
    <style
       id="style42">.cls-1{fill:none;}.cls-2{fill:#919191;}</style>
  </defs>
  <title
     id="title46">Asset 5</title>
  <g
     id="Layer_2"
     data-name="Layer 2">
    <g
       id="Layer_1-2"
       data-name="Layer 1">
      <path
         class="cls-1"
         d="M21.38,93.08H6.22A1.62,1.62,0,0,0,4.6,94.69v3a1.62,1.62,0,0,0,1.62,1.61H21.38A1.61,1.61,0,0,0,23,97.74v-3A1.61,1.61,0,0,0,21.38,93.08Z"
         id="path48" />
      <path
         class="cls-1"
         d="M99.62,93l-15.15.07a1.6,1.6,0,0,0-1.61,1.61v3.12a1.61,1.61,0,0,0,1.61,1.61H99.64a1.61,1.61,0,0,0,1.61-1.61v-3.2A1.6,1.6,0,0,0,99.62,93Z"
         id="path50" />
      <path
         class="cls-2"
         d="M105.83,104.15l-1.24-7.53C103.21,88.54,96.48,81.27,88,81.18V5.13l2.24-.82a1.3,1.3,0,0,0,.85-1.22V1.31A1.3,1.3,0,0,0,89.45.06L84,1.74A1.31,1.31,0,0,0,83,3V18.08c-2.68-3.17-6.5-5.35-9.87-5.35H32.71c-3.38,0-7.2,2.18-9.88,5.35V3a1.29,1.29,0,0,0-.92-1.24L16.42.06A1.3,1.3,0,0,0,14.74,1.3V3.09a1.3,1.3,0,0,0,.85,1.22l2.24.82V81.18C9.4,81.27,2.76,88.54,1.29,96.62L0,104.15v14.66H5.42v7.59A1.63,1.63,0,0,0,7.06,128H21.78a1.63,1.63,0,0,0,1.64-1.64v-7.55l60,.14v7.41A1.63,1.63,0,0,0,85.06,128H99.78a1.63,1.63,0,0,0,1.64-1.64V119h4l.42-12.65ZM23,97.74a1.61,1.61,0,0,1-1.62,1.61H6.22A1.62,1.62,0,0,1,4.6,97.74v-3a1.62,1.62,0,0,1,1.62-1.61H21.38A1.61,1.61,0,0,1,23,94.69Zm55.6,1H27.33l.05-4.38H78.6Zm0-11H27.33l.05-4.38H78.6Zm0-12H27.33l.05-4.38H78.6Zm22.65,22a1.61,1.61,0,0,1-1.61,1.61H84.47a1.61,1.61,0,0,1-1.61-1.61V94.69a1.6,1.6,0,0,1,1.61-1.61L99.62,93a1.6,1.6,0,0,1,1.63,1.6Z"
         id="path52" />
      <path
         class="cls-2"
         d="M9.43,49h5.42a1.68,1.68,0,0,0,1.68-1.68V34.9a1.68,1.68,0,0,0-1.68-1.68H9.43A1.68,1.68,0,0,0,7.75,34.9V47.37A1.68,1.68,0,0,0,9.43,49Z"
         id="path54" />
      <path
         class="cls-2"
         d="M89.72,34.9V47.37A1.69,1.69,0,0,0,91.41,49h5.41a1.69,1.69,0,0,0,1.69-1.68V34.9a1.69,1.69,0,0,0-1.69-1.68H91.41A1.69,1.69,0,0,0,89.72,34.9Z"
         id="path56" />
    </g>
    <path
       style="fill:#32ab20;fill-opacity:1;stroke-width:0.19183268"
       d="m 6.0676999,127.50306 -0.5452894,-0.46868 -0.05853,-4.14137 -0.05853,-4.14136 H 2.7302645 0.05517909 l 8.168e-5,-7.24169 8.167e-5,-7.24168 0.76374234,-4.417746 C 1.2391431,97.420774 1.766097,94.874195 1.9900933,94.19147 4.3197773,87.090759 10.156518,81.91608 16.408915,81.408178 L 17.895618,81.28741 V 43.156778 5.0261478 l -1.224621,-0.407528 c -1.70713,-0.5680961 -1.875119,-0.8012799 -1.805613,-2.5063471 0.05033,-1.23475998 0.112343,-1.43538341 0.54271,-1.75589989 0.48406,-0.36050489 0.497725,-0.35825436 3.64482,0.6002453 1.858521,0.56604319 3.257653,1.09705969 3.398731,1.28993059 0.182444,0.2494247 0.23979,2.1770632 0.23979,8.0603823 0,4.252907 0.06799,7.732559 0.151086,7.732559 0.0831,0 0.579465,-0.439361 1.103038,-0.976357 1.829284,-1.87618 4.234996,-3.336102 6.484154,-3.934951 1.46596,-0.390318 43.48478,-0.390318 44.95074,0 2.235029,0.595087 4.568829,1.989741 6.418322,3.835519 0.592875,0.591684 1.132404,1.075789 1.198955,1.075789 0.06655,0 0.121,-3.479652 0.121,-7.732559 0,-5.8885724 0.05718,-7.8083859 0.239791,-8.0505323 0.248861,-0.3300019 5.661926,-2.09995426 6.432752,-2.10336723 0.86572,-0.003833 1.192597,0.55172616 1.192597,2.02693053 0,1.6390323 -0.166549,1.8610911 -1.83857,2.451365 l -1.231697,0.4348256 0.04843,38.0911024 0.04843,38.091103 1.42647,0.1273 c 2.868839,0.256018 6.21785,1.754349 8.742811,3.911492 2.497656,2.133812 4.983056,6.09137 5.836486,9.29358 0.21089,0.791309 0.69719,3.294726 1.08065,5.56315 l 0.6972,4.1244 -0.11685,4.22032 c -0.0643,2.32117 -0.17239,5.62309 -0.24026,7.3376 l -0.1234,3.11728 h -1.98537 -1.98537 v 3.82763 c 0,4.07201 -0.0971,4.61268 -0.89342,4.97552 -0.670848,0.30566 -15.473043,0.29627 -16.04842,-0.0102 -0.849783,-0.45259 -0.886108,-0.64718 -0.892494,-4.78119 l -0.0061,-3.94927 -8.376197,-0.12717 c -4.606908,-0.0699 -18.159887,-0.12716 -30.117731,-0.12716 H 23.266934 v 4.10315 c 0,3.75351 -0.03124,4.14174 -0.366579,4.55603 l -0.366579,0.45287 -7.960393,0.054 -7.9603935,0.054 z M 22.324394,99.130655 c 0.596291,-0.457818 0.750707,-1.078483 0.750707,-3.017409 0,-1.894727 -0.01469,-1.960384 -0.560742,-2.506436 L 21.953618,93.046068 H 13.79667 5.6397214 l -0.5382371,0.462973 c -0.532581,0.458106 -0.5382372,0.486503 -0.5382372,2.702266 0,2.215764 0.00566,2.244161 0.5382372,2.702267 l 0.5382371,0.462973 8.1901496,-0.0061 c 6.135643,-0.0046 8.266501,-0.06472 8.494523,-0.239791 z m 78.267736,0 c 0.58741,-0.450996 0.7507,-1.08058 0.7507,-2.894248 0,-2.142568 -0.16528,-2.683893 -0.94214,-3.085623 -0.504406,-0.260837 -1.55628,-0.281628 -8.570865,-0.1694 -9.813392,0.157006 -8.998844,-0.135359 -8.998844,3.229923 0,2.215764 0.0057,2.244161 0.538237,2.702267 l 0.538238,0.462973 8.190149,-0.0061 c 6.135643,-0.0046 8.266505,-0.06472 8.494525,-0.239791 z m -21.927421,-2.58364 -0.05405,-2.254034 H 53.000999 27.391336 l -0.05405,2.254034 -0.05404,2.254034 h 25.717755 25.717755 z m 0.04187,-10.982421 V 83.262601 H 53.000999 27.29542 v 2.301993 2.301992 h 25.705579 25.705579 z m 0,-11.989543 V 71.368975 H 53.000999 27.29542 v 2.206076 2.206076 h 25.705579 25.705579 z"
       id="path3754"
       inkscape:connector-curvature="0" />
    <path
       style="fill:#5bea47;fill-opacity:1;stroke-width:0.27129239"
       d="M 8.2922117,48.46788 C 8.0559315,48.231599 7.9666608,46.23454 7.9666608,41.185032 c 0,-6.395576 0.040056,-6.993547 0.4961235,-7.406282 0.4037081,-0.365351 1.1033649,-0.448985 3.7560467,-0.448985 2.813621,0 3.321391,0.06792 3.708908,0.496123 0.392683,0.43391 0.448986,1.350016 0.448986,7.305516 0,5.828634 -0.0614,6.870796 -0.426317,7.23571 -0.342903,0.342903 -1.101964,0.426316 -3.879481,0.426316 -2.3240714,0 -3.5596109,-0.106446 -3.7787153,-0.32555 z"
       id="path3756"
       inkscape:connector-curvature="0" />
    <path
       style="fill:#5bea47;fill-opacity:1;stroke-width:0.27129239"
       d="m 90.323276,48.367114 c -0.36507,-0.36507 -0.426317,-1.411361 -0.426317,-7.282847 0,-6.297957 0.04042,-6.893108 0.496124,-7.305517 0.403708,-0.365351 1.103365,-0.448985 3.756046,-0.448985 2.813621,0 3.321392,0.06792 3.708909,0.496123 0.392315,0.433503 0.448985,1.343176 0.448985,7.207083 0,4.10723 -0.108959,6.914553 -0.280837,7.23571 -0.255363,0.477151 -0.598122,0.524749 -3.778715,0.524749 -2.818166,0 -3.580721,-0.08284 -3.924195,-0.426316 z"
       id="path3758"
       inkscape:connector-curvature="0" />
    <path
       style="fill:#32ab20;fill-opacity:1;stroke-width:0.27129239"
       d="m 91.253421,48.570836 -0.949523,-0.184344 -0.221544,-2.034693 c -0.121849,-1.119081 -0.168554,-4.272658 -0.103788,-7.007948 0.0989,-4.176742 0.190242,-5.045741 0.570348,-5.425847 0.688852,-0.688852 6.443262,-0.66299 7.138012,0.03208 0.439761,0.439963 0.483512,1.109102 0.474267,7.25369 -0.0072,4.768528 -0.103365,6.862198 -0.325481,7.084314 -0.361353,0.361353 -5.123704,0.565923 -6.582291,0.282748 z"
       id="path834"
       inkscape:connector-curvature="0" />
    <path
       style="fill:#32ab20;fill-opacity:1;stroke-width:0.27129239"
       d="M 9.2817624,48.615172 8.2908797,48.49254 8.091111,45.048361 C 7.80864,40.178327 8.0932757,34.443343 8.644828,33.89179 c 0.6641355,-0.664135 6.436788,-0.616958 7.111799,0.05812 0.439145,0.43919 0.484451,1.116604 0.484451,7.243532 0,4.691515 -0.09446,6.85348 -0.308792,7.067798 -0.324011,0.323984 -4.917313,0.568433 -6.6505236,0.353932 z"
       id="path838"
       inkscape:connector-curvature="0" />
  </g>
</svg>
