<?xml version="1.0" encoding="UTF-8" standalone="no"?>
<svg
   xmlns:dc="http://purl.org/dc/elements/1.1/"
   xmlns:cc="http://creativecommons.org/ns#"
   xmlns:rdf="http://www.w3.org/1999/02/22-rdf-syntax-ns#"
   xmlns:svg="http://www.w3.org/2000/svg"
   xmlns="http://www.w3.org/2000/svg"
   xmlns:sodipodi="http://sodipodi.sourceforge.net/DTD/sodipodi-0.dtd"
   xmlns:inkscape="http://www.inkscape.org/namespaces/inkscape"
   viewBox="0 0 99 144"
   version="1.1"
   id="svg3770"
   sodipodi:docname="FICHAS.svg"
   inkscape:version="0.92.1 r15371">
  <metadata
     id="metadata3774">
    <rdf:RDF>
      <cc:Work
         rdf:about="">
        <dc:format>image/svg+xml</dc:format>
        <dc:type
           rdf:resource="http://purl.org/dc/dcmitype/StillImage" />
      </cc:Work>
    </rdf:RDF>
  </metadata>
  <sodipodi:namedview
     pagecolor="#ffffff"
     bordercolor="#666666"
     borderopacity="1"
     objecttolerance="10"
     gridtolerance="10"
     guidetolerance="10"
     inkscape:pageopacity="0"
     inkscape:pageshadow="2"
     inkscape:window-width="1366"
     inkscape:window-height="705"
     id="namedview3772"
     showgrid="false"
     inkscape:zoom="2.3177389"
     inkscape:cx="7.9445452"
     inkscape:cy="24.614069"
     inkscape:window-x="-8"
     inkscape:window-y="-8"
     inkscape:window-maximized="1"
     inkscape:current-layer="svg3770" />
  <defs
     id="defs3762">
    <style
       id="style3760">.cls-1{fill:#afafaf;}</style>
  </defs>
  <title
     id="title3764">Asset 4</title>
  <g
     id="Layer_2"
     data-name="Layer 2">
    <g
       id="Layer_1-2"
       data-name="Layer 1">
      <path
         class="cls-1"
         d="M89,0H10A10,10,0,0,0,0,10V134a10,10,0,0,0,10,10H89a10,10,0,0,0,10-10V10A10,10,0,0,0,89,0ZM22.83,25.6l3.89-2.43H29V35.5H26.19V26.08l-3.36,1.86Zm7.92,62.15A2.47,2.47,0,0,1,29.67,90a6.7,6.7,0,0,1-3.42.68,36.61,36.61,0,0,1-4.15-.29V88.2l.61.11.4.1.65.11q.23,0,1,.12a11.14,11.14,0,0,0,1.16,0,3.07,3.07,0,0,0,1.53-.26,1.08,1.08,0,0,0,.43-1V86q0-.9-1.92-.9H23.68V83.2h2.24c1,0,1.48-.36,1.48-1.08v-1.2a1.06,1.06,0,0,0-.15-.61.89.89,0,0,0-.54-.32,5.47,5.47,0,0,0-1.15-.09c-.72,0-1.84.07-3.34.23v-2C23.94,78,25.16,78,25.87,78a7.87,7.87,0,0,1,3.35.53,1.93,1.93,0,0,1,1,1.88v2a1.43,1.43,0,0,1-.33,1,1.61,1.61,0,0,1-.84.52c1.11.39,1.67,1,1.67,1.84ZM31,63H22.31V60.19a2.9,2.9,0,0,1,.57-1.79,3.78,3.78,0,0,1,1.48-1.16c.48-.21,1-.43,1.69-.64a6.56,6.56,0,0,0,1.51-.69,1,1,0,0,0,.53-.85V53.48a.76.76,0,0,0-.48-.78A4.46,4.46,0,0,0,26,52.49a16.63,16.63,0,0,0-3.46.48V50.88a19,19,0,0,1,4-.4,6.45,6.45,0,0,1,3.33.68A2.49,2.49,0,0,1,31,53.44v1.71a2.6,2.6,0,0,1-.58,1.68,3.61,3.61,0,0,1-1.49,1.08c-.57.24-1.16.45-1.75.64a6,6,0,0,0-1.53.76,1.2,1.2,0,0,0-.56,1v.63H31ZM81,90H45V81H81Zm0-27H45V54H81Zm0-27H45V27H81Z"
         id="path3766" />
    </g>
  </g>
  <path
     style="fill:#5bea47;fill-opacity:1;stroke-width:0.61016947"
     d="M 5.6690884,142.50508 C 3.8768846,141.6005 2.4833672,140.29969 1.5837357,138.69153 L 0.21838015,136.25085 0.20834286,72.315995 C 0.19736384,2.3859385 -0.00172269,6.2233432 3.8240135,2.6237288 L 5.7695113,0.79322034 48.943867,0.62881438 92.118222,0.46440844 l 2.0579,1.38681826 c 1.131846,0.76275 2.621898,2.3469022 3.311225,3.5203381 1.238821,2.1088178 1.255534,2.8576343 1.443765,64.6758932 0.133322,43.785412 -0.01043,63.473502 -0.4793,65.647072 -0.728647,3.3778 -3.241703,6.37898 -6.310178,7.53584 -1.149083,0.43323 -15.295643,0.6476 -42.735118,0.6476 H 8.3890861 Z M 29.494586,90.178694 c 0.98782,-0.528669 1.139315,-1.303279 1.084251,-5.54392 -0.07811,-6.01507 -0.56879,-6.655113 -5.102082,-6.655113 -2.905568,0 -3.312348,0.149864 -3.312348,1.220339 0,1.016951 0.40678,1.220339 2.440678,1.220339 2.033898,0 2.440678,0.203388 2.440678,1.220339 0,0.949155 -0.40678,1.220339 -1.830509,1.220339 -1.423728,0 -1.830508,0.271184 -1.830508,1.220339 0,0.987895 0.40678,1.220339 2.135593,1.220339 1.893236,0 2.135593,0.180085 2.135593,1.586862 0,1.506301 -0.139399,1.575781 -2.745763,1.368488 -2.507773,-0.199452 -2.745762,-0.09901 -2.745762,1.158895 0,1.248339 0.289376,1.37728 3.09096,1.37728 1.700029,0 3.607678,-0.276541 4.239219,-0.614526 z M 81.350847,85.60678 V 81.030508 H 63.045763 44.740678 v 4.576272 4.576271 H 63.045763 81.350847 Z M 31.316949,62.115254 c 0,-1.057625 -0.40678,-1.220339 -3.050847,-1.220339 -3.761546,0 -3.908188,-0.896208 -0.393178,-2.402917 2.730239,-1.170316 3.444025,-2.127901 3.444025,-4.620353 0,-2.418347 -1.538879,-3.349611 -5.535109,-3.349611 -3.210653,0 -3.617433,0.137227 -3.617433,1.220339 0,1.039548 0.40678,1.220339 2.745762,1.220339 2.44993,0 2.745763,0.149618 2.745763,1.388672 0,1.038005 -0.654841,1.692847 -2.59322,2.593221 -2.389801,1.110059 -2.607938,1.407967 -2.780846,3.797768 l -0.187626,2.59322 h 4.611354 c 4.204575,0 4.611355,-0.107652 4.611355,-1.220339 z M 81.350847,58.454237 V 53.572881 H 63.045763 44.740678 v 4.881356 4.881356 h 18.305085 18.305084 z m -0.126878,-27 0.178212,-4.728813 H 63.071426 44.740678 V 31.2 c 0,2.461017 0.187119,4.661695 0.41582,4.890396 0.228701,0.228701 8.397345,0.343108 18.152541,0.254237 l 17.736724,-0.161582 z m -51.868725,-2.135593 0.173888,-6.254237 h -1.497321 c -2.359311,0 -5.248941,1.929843 -5.253377,3.508474 -0.0043,1.550395 0.201855,1.632276 1.866764,0.741244 1.118743,-0.598733 1.180226,-0.390011 1.180226,4.006631 v 4.638268 l 1.677966,-0.193072 1.677966,-0.193071 z"
     id="path3776"
     inkscape:connector-curvature="0" />
  <path
     style="fill:#32ab20;fill-opacity:1;stroke-width:0.61016947"
     d="M 6.4043674,142.70647 C 3.8468344,141.2944 1.1446725,138.29382 0.64781783,136.31419 0.45897434,135.56178 0.39041039,106.40921 0.49545351,71.530712 0.70385513,2.3330735 0.52418651,5.7560823 4.1162778,2.5475324 5.5594242,1.2584766 5.8164142,1.249078 48.667262,0.91823016 L 91.766728,0.58546275 93.965724,2.0797212 c 4.668718,3.1724752 4.326156,-1.99773947 4.531765,68.3961358 0.125042,42.808013 -0.02215,63.736113 -0.459695,65.361023 -0.353996,1.31464 -1.216093,3.11802 -1.915774,4.00752 -2.860511,3.63655 -1.238705,3.50304 -46.235401,3.8064 -40.4202704,0.27251 -41.3134591,0.25312 -43.4822516,-0.94433 z M 29.930993,89.834381 c 1.189933,-1.189934 1.301218,-7.786476 0.169111,-10.024212 -0.693418,-1.370618 -1.141447,-1.525424 -4.414734,-1.525424 -2.83144,0 -3.642997,0.203895 -3.642997,0.915255 0,0.581113 0.779661,1.026634 2.135593,1.220338 2.514029,0.359146 2.899314,1.900288 0.61017,2.440678 -2.121019,0.500706 -1.926848,2.054075 0.305085,2.440678 1.314506,0.227691 1.830508,0.65938 1.830508,1.531416 0,0.976674 -0.358266,1.184241 -1.830508,1.06053 -2.282672,-0.191807 -3.65079,0.640928 -3.15891,1.922747 0.520548,1.356523 6.644371,1.370307 7.996682,0.018 z M 81.533899,85.606779 V 81.030508 H 62.923729 44.31356 v 4.576271 4.576271 h 18.610169 18.61017 z M 31.5,62.115254 c 0,-1.013901 -0.40678,-1.220339 -2.404667,-1.220339 -3.301266,0 -3.592566,-0.937545 -0.742987,-2.391291 C 30.844397,57.232275 31.5,56.267511 31.5,53.871645 c 0,-2.544013 -1.559689,-3.423985 -5.714928,-3.224346 -2.840144,0.136456 -3.742699,0.400533 -3.742699,1.095073 0,0.609676 0.812903,1.017114 2.434771,1.220339 3.394418,0.425332 3.528309,1.935099 0.349568,3.94175 -1.36359,0.860796 -2.479254,1.801894 -2.479254,2.091329 0,0.289434 -0.17161,1.384294 -0.381356,2.433023 l -0.381356,1.90678 h 4.957627 C 31.09322,63.335593 31.5,63.235464 31.5,62.115254 Z M 81.533899,58.454237 V 53.572881 H 62.923729 44.31356 v 4.881356 4.881356 h 18.610169 18.61017 z m -0.126879,-27 0.178212,-4.728814 H 62.949393 44.31356 V 29.7 c 0,1.636016 0.172416,3.836659 0.383148,4.890315 l 0.383147,1.915739 18.074482,-0.161502 18.074477,-0.161502 z m -51.868725,-2.135593 0.173888,-6.254238 h -2.06784 c -1.364918,0 -2.632393,0.52321 -3.728629,1.539167 -1.869522,1.732615 -1.785216,3.110197 0.17697,2.891756 1.224355,-0.136301 1.305621,0.122464 1.305621,4.157303 v 4.302652 l 1.983051,-0.191202 1.983051,-0.191201 z"
     id="path850"
     inkscape:connector-curvature="0" />
  <path
     style="fill:#32ab20;fill-opacity:1;stroke-width:0.07627118"
     d="m 22.180734,62.407663 c 0.02962,-0.496427 0.0666,-0.916895 0.08218,-0.934374 0.01558,-0.01748 0.02833,0.334322 0.02833,0.781779 v 0.81356 l 4.175848,0.0066 c 3.062281,0.0048 4.11483,0.0283 3.947034,0.08809 -0.146619,0.05224 -1.676187,0.09329 -4.258023,0.114259 l -4.02921,0.03273 z"
     id="path852"
     inkscape:connector-curvature="0" />
</svg>
