<?xml version="1.0" encoding="UTF-8" standalone="no"?>
<svg
   xmlns:dc="http://purl.org/dc/elements/1.1/"
   xmlns:cc="http://creativecommons.org/ns#"
   xmlns:rdf="http://www.w3.org/1999/02/22-rdf-syntax-ns#"
   xmlns:svg="http://www.w3.org/2000/svg"
   xmlns="http://www.w3.org/2000/svg"
   xmlns:sodipodi="http://sodipodi.sourceforge.net/DTD/sodipodi-0.dtd"
   xmlns:inkscape="http://www.inkscape.org/namespaces/inkscape"
   viewBox="0 0 99 144"
   version="1.1"
   id="svg3788"
   sodipodi:docname="MIS_DATOS.svg"
   inkscape:version="0.92.1 r15371">
  <metadata
     id="metadata3792">
    <rdf:RDF>
      <cc:Work
         rdf:about="">
        <dc:format>image/svg+xml</dc:format>
        <dc:type
           rdf:resource="http://purl.org/dc/dcmitype/StillImage" />
      </cc:Work>
    </rdf:RDF>
  </metadata>
  <sodipodi:namedview
     pagecolor="#ffffff"
     bordercolor="#666666"
     borderopacity="1"
     objecttolerance="10"
     gridtolerance="10"
     guidetolerance="10"
     inkscape:pageopacity="0"
     inkscape:pageshadow="2"
     inkscape:window-width="1366"
     inkscape:window-height="705"
     id="namedview3790"
     showgrid="false"
     inkscape:zoom="1.6388889"
     inkscape:cx="38.822034"
     inkscape:cy="72"
     inkscape:window-x="-8"
     inkscape:window-y="-8"
     inkscape:window-maximized="1"
     inkscape:current-layer="svg3788" />
  <defs
     id="defs3780">
    <style
       id="style3778">.cls-1{fill:#afafaf;}</style>
  </defs>
  <title
     id="title3782">Asset 3</title>
  <g
     id="Layer_2"
     data-name="Layer 2">
    <g
       id="Layer_1-2"
       data-name="Layer 1">
      <path
         class="cls-1"
         d="M89,0H10A10,10,0,0,0,0,10V134a10,10,0,0,0,10,10H89a10,10,0,0,0,10-10V10A10,10,0,0,0,89,0ZM54,90H18V81H54Zm0-27H18V54H54Zm0-27H18V27H54ZM81.29,87.71l-2.08,2.08L73.5,84.08l-5.71,5.71-2.08-2.08L71.42,82l-5.71-5.71,2.08-2.08,5.71,5.71,5.71-5.71,2.08,2.08L75.58,82Zm-5.5-26.92-2,2L66,55l2-2,5.71,5.71,11.5-11.5,2.08,2.08Zm0-26.83-2,2L66,28.17l2-2,5.71,5.71,11.5-11.5,2.08,2.08Z"
         id="path3784" />
    </g>
  </g>
  <path
     style="fill:#5bea47;fill-opacity:1;stroke-width:0.61016947"
     d="M 5.6690884,142.50508 C 3.8768846,141.6005 2.4833672,140.29969 1.5837357,138.69153 L 0.21838015,136.25085 0.20834286,72.315995 C 0.19736384,2.3859385 -0.00172269,6.2233432 3.8240135,2.6237288 L 5.7695113,0.79322034 48.943867,0.62881438 92.118222,0.46440844 l 2.0579,1.38681826 c 1.131846,0.76275 2.621898,2.3469022 3.311225,3.5203381 1.238821,2.1088178 1.255534,2.8576343 1.443765,64.6758932 0.133322,43.785412 -0.01043,63.473502 -0.4793,65.647072 -0.728647,3.3778 -3.241703,6.37898 -6.310178,7.53584 -1.149083,0.43323 -15.295643,0.6476 -42.735118,0.6476 H 8.3890861 Z M 54.377579,85.454237 54.556852,81.030508 H 36.225037 17.89322 v 4.585351 4.58535 l 18.152543,-0.161621 18.152542,-0.161622 z m 24.366496,-0.621598 -2.871921,-2.915768 2.845714,-2.845714 c 2.429476,-2.429476 2.729984,-2.985169 2.054466,-3.799117 -1.186902,-1.430127 -1.873807,-1.196054 -4.737375,1.614325 l -2.616315,2.567722 -2.750077,-2.699 -2.750082,-2.698999 -1.220339,1.220339 -1.220339,1.220339 2.752352,2.701233 2.752359,2.701226 -2.847856,2.891331 c -2.419548,2.456487 -2.729838,3.033525 -2.063154,3.836825 1.180434,1.422336 1.870627,1.184845 4.739638,-1.630873 l 2.625132,-2.576374 2.876998,2.876998 c 2.871091,2.871086 2.879493,2.874509 4.089862,1.664134 1.210369,-1.210369 1.206958,-1.21885 -1.659063,-4.128627 z M 54.198305,58.454237 V 53.877966 L 36.045763,53.716344 17.89322,53.554722 v 4.899515 4.899515 L 36.045763,63.19213 54.198305,63.030508 Z m 26.844193,-2.437401 6.687781,-6.708588 -1.221156,-1.221161 -1.221163,-1.221162 -5.765656,5.789727 -5.76565,5.789727 -2.884522,-2.841148 c -2.450617,-2.413766 -3.026752,-2.723109 -3.830021,-2.056451 -0.520024,0.431582 -0.945501,0.971169 -0.945501,1.199081 0,0.53101 7.34112,7.978563 7.864542,7.978563 0.216457,0 3.403062,-3.018864 7.081346,-6.708588 z M 54.198305,31.60678 V 27.030508 L 36.045763,26.868886 17.89322,26.707264 v 4.899516 4.899515 l 18.152543,-0.161622 18.152542,-0.161622 z m 26.844193,-2.437402 6.687781,-6.708587 -1.221156,-1.221162 -1.221163,-1.221161 -5.765656,5.789726 -5.76565,5.789727 -2.884522,-2.841147 c -2.450617,-2.413767 -3.026752,-2.723109 -3.830021,-2.056452 -0.520024,0.431583 -0.945501,1.086333 -0.945501,1.455002 0,0.859473 6.770551,7.722642 7.618424,7.722642 0.351824,0 3.64918,-3.018864 7.327464,-6.708588 z"
     id="path3794"
     inkscape:connector-curvature="0" />
  <path
     style="fill:#32ab20;fill-opacity:1;stroke-width:0.61016947"
     d="M 6.4043674,142.70647 C 3.8468344,141.2944 1.1446725,138.29382 0.64781783,136.31419 0.45897434,135.56178 0.39041039,106.40921 0.49545351,71.530712 0.70385513,2.3330735 0.52418651,5.7560823 4.1162778,2.5475324 5.5594242,1.2584766 5.8164142,1.249078 48.667262,0.91823016 L 91.766728,0.58546275 93.965724,2.0797212 c 4.668718,3.1724752 4.326156,-1.99773947 4.531765,68.3961358 0.125042,42.808013 -0.02215,63.736113 -0.459695,65.361023 -0.353996,1.31464 -1.216093,3.11802 -1.915774,4.00752 -2.860511,3.63655 -1.238705,3.50304 -46.235401,3.8064 -40.4202704,0.27251 -41.3134591,0.25312 -43.4822516,-0.94433 z M 54.56063,85.454237 54.739903,81.030508 h -18.6369 -18.636901 v 4.585216 4.585223 l 18.457627,-0.161494 18.457627,-0.161487 z m 24.391062,-0.607155 -2.847356,-2.90132 2.770249,-2.921491 c 2.272722,-2.396807 2.637287,-3.081704 2.029899,-3.81356 -1.16341,-1.401827 -2.250958,-1.074337 -5.074084,1.527926 l -2.625388,2.419999 -2.66386,-2.714278 c -2.501634,-2.548977 -2.731082,-2.653432 -3.76776,-1.715253 -1.584769,1.434197 -1.399137,2.104431 1.3176,4.757253 l 2.421507,2.364535 -2.460686,2.669528 c -1.353374,1.468239 -2.3716,3.13704 -2.262728,3.708452 0.370922,1.946697 2.540221,1.490827 5.027656,-1.056533 l 2.389448,-2.447018 3.000942,2.80703 3.000942,2.80703 1.295487,-1.295488 1.295494,-1.295487 z M 54.381356,58.454237 V 53.877966 L 35.923729,53.716476 17.466102,53.554987 v 4.89925 4.899252 l 18.457627,-0.161494 18.457627,-0.161487 z m 26.844193,-2.437402 6.687782,-6.708587 -1.361661,-1.361663 -1.36166,-1.361664 -5.787354,5.763291 -5.787354,5.763291 -2.707328,-2.657038 c -2.751505,-2.700399 -4.628313,-3.045335 -4.628313,-0.850631 0,1.142613 6.5466,8.121589 7.618424,8.121589 0.351824,0 3.64918,-3.018864 7.327464,-6.708588 z M 54.381356,31.606779 V 27.030508 L 35.923729,26.869019 17.466102,26.707529 v 4.89925 4.89925 L 35.923729,36.34454 54.381356,36.18305 Z m 26.844193,-2.437401 6.687782,-6.708588 -1.361661,-1.361663 -1.36166,-1.361663 -5.787354,5.76329 -5.787354,5.763291 -2.623119,-2.574396 C 68.06877,25.820538 67.224924,25.56935 66.302158,27.29356 c -0.533392,0.996653 -0.08738,1.749185 2.893088,4.881356 1.938039,2.036677 3.932939,3.70305 4.433108,3.70305 0.500174,0 3.918911,-3.018865 7.597195,-6.708588 z"
     id="path868"
     inkscape:connector-curvature="0" />
</svg>
