<?xml version="1.0" encoding="UTF-8" standalone="no"?>
<svg
   xmlns:dc="http://purl.org/dc/elements/1.1/"
   xmlns:cc="http://creativecommons.org/ns#"
   xmlns:rdf="http://www.w3.org/1999/02/22-rdf-syntax-ns#"
   xmlns:svg="http://www.w3.org/2000/svg"
   xmlns="http://www.w3.org/2000/svg"
   xmlns:sodipodi="http://sodipodi.sourceforge.net/DTD/sodipodi-0.dtd"
   xmlns:inkscape="http://www.inkscape.org/namespaces/inkscape"
   viewBox="0 0 144 117"
   version="1.1"
   id="svg3816"
   sodipodi:docname="USUARIOS.svg"
   inkscape:version="0.92.1 r15371">
  <metadata
     id="metadata3820">
    <rdf:RDF>
      <cc:Work
         rdf:about="">
        <dc:format>image/svg+xml</dc:format>
        <dc:type
           rdf:resource="http://purl.org/dc/dcmitype/StillImage" />
      </cc:Work>
    </rdf:RDF>
  </metadata>
  <sodipodi:namedview
     pagecolor="#ffffff"
     bordercolor="#666666"
     borderopacity="1"
     objecttolerance="10"
     gridtolerance="10"
     guidetolerance="10"
     inkscape:pageopacity="0"
     inkscape:pageshadow="2"
     inkscape:window-width="1366"
     inkscape:window-height="705"
     id="namedview3818"
     showgrid="false"
     inkscape:zoom="2.0138889"
     inkscape:cx="67.201802"
     inkscape:cy="96.466799"
     inkscape:window-x="-8"
     inkscape:window-y="-8"
     inkscape:window-maximized="1"
     inkscape:current-layer="svg3816" />
  <defs
     id="defs3798">
    <style
       id="style3796">.cls-1{fill:#adadad;}.cls-2{fill:#7f7f7f;}</style>
  </defs>
  <title
     id="title3800">Asset 1</title>
  <g
     id="Layer_2"
     data-name="Layer 2">
    <g
       id="Layer_1-2"
       data-name="Layer 1">
      <path
         class="cls-1"
         d="M90,105.38V62.63a11.25,11.25,0,0,1,11.25-11.25h31.5A11.25,11.25,0,0,1,144,62.63v42.75Z"
         id="path3802" />
      <circle
         class="cls-1"
         cx="117"
         cy="31.13"
         r="13.5"
         id="circle3804" />
      <path
         class="cls-1"
         d="M0,105.38V62.63A11.25,11.25,0,0,1,11.25,51.38h31.5A11.25,11.25,0,0,1,54,62.63v42.75Z"
         id="path3806" />
      <circle
         class="cls-1"
         cx="27"
         cy="31.13"
         r="13.5"
         id="circle3808" />
      <path
         class="cls-2"
         d="M36,117V60A15,15,0,0,1,51,45H93a15,15,0,0,1,15,15v57Z"
         id="path3810" />
      <circle
         class="cls-2"
         cx="72"
         cy="18"
         r="18"
         id="circle3812" />
    </g>
  </g>
  <path
     style="fill:#5bea47;fill-opacity:1;stroke-width:0.24827586"
     d="m 0.08524822,83.491356 c 0,-15.03948 0.08574788,-22.245563 0.27549104,-23.151724 C 1.0076515,57.250159 3.3291611,54.192713 6.0905701,52.793401 8.6926486,51.474829 9.008927,51.45155 24.321511,51.45155 h 14.200902 l -0.855734,1.675862 c -1.783326,3.492451 -1.677563,1.797652 -1.76626,28.303448 l -0.07996,23.89655 H 17.952853 0.08524822 Z"
     id="path3822"
     inkscape:connector-curvature="0" />
  <path
     style="fill:#5bea47;fill-opacity:1;stroke-width:0.24827586"
     d="m 24.292145,44.246616 c -3.46757,-0.694149 -6.542836,-2.854321 -8.604474,-6.044075 -1.39798,-2.162947 -1.984472,-4.257156 -1.993639,-7.11876 -0.01253,-3.910477 1.36717,-7.076664 4.239431,-9.728829 1.800004,-1.662073 3.457586,-2.557389 5.883343,-3.177793 2.280968,-0.583374 3.599051,-0.609126 5.937408,-0.116001 4.927058,1.039042 8.909471,4.844854 10.182019,9.730495 0.466652,1.791593 0.470954,5.009072 0.009,6.744623 -1.239644,4.657525 -5.165806,8.479041 -9.844225,9.58184 -1.693396,0.399168 -4.181804,0.454216 -5.808883,0.1285 z"
     id="path3824"
     inkscape:connector-curvature="0" />
  <path
     style="fill:#5bea47;fill-opacity:1;stroke-width:0.24827586"
     d="m 113.86316,44.143088 c -6.30362,-1.527445 -10.67704,-7.548586 -10.16709,-13.997614 0.47636,-6.02426 4.70804,-10.860326 10.59524,-12.108495 2.05421,-0.435522 3.42475,-0.432252 5.52678,0.01319 3.67077,0.77787 7.2116,3.468735 8.97158,6.81797 2.78613,5.302021 1.86152,11.452295 -2.35961,15.695432 -3.27374,3.290815 -8.09315,4.663562 -12.5669,3.579518 z"
     id="path3826"
     inkscape:connector-curvature="0" />
  <path
     style="fill:#5bea47;fill-opacity:1;stroke-width:0.24827586"
     d="m 108.08094,81.927412 c -0.005,-25.755072 0.0229,-25.242448 -1.53423,-28.426524 -0.45104,-0.922309 -0.85732,-1.760718 -0.90284,-1.863132 -0.0455,-0.102413 6.24484,-0.186206 13.97857,-0.186206 15.88041,0 16.3541,0.04291 18.92679,1.714526 1.66192,1.079845 3.30146,2.783306 4.00134,4.157343 1.31935,2.590222 1.2864,1.928738 1.2864,25.828365 v 22.175626 h -17.87586 -17.87586 l -0.004,-23.399998 z"
     id="path3828"
     inkscape:connector-curvature="0" />
  <path
     style="fill:#219f12;fill-opacity:1;stroke-width:0.24827586"
     d="m 36.146895,86.861075 0.07146,-29.979311 0.64019,-1.643479 c 0.98866,-2.538066 1.891661,-3.915368 3.80592,-5.804982 2.059466,-2.032949 4.582914,-3.420904 7.222856,-3.972737 2.589133,-0.541212 45.586919,-0.539783 48.165517,0.0016 4.821182,1.012219 9.177132,4.757846 11.005372,9.463371 l 0.6636,1.707953 0.0687,30.103448 0.0687,30.103452 H 71.967363 36.075432 Z"
     id="path4649"
     inkscape:connector-curvature="0" />
  <path
     style="fill:#219f12;fill-opacity:1;stroke-width:0.24827586"
     d="M 69.056163,35.646032 C 62.639616,34.56559 57.278153,29.995899 55.052796,23.710657 54.195727,21.289972 53.960292,16.567254 54.567456,13.974965 55.991435,7.8952841 60.379494,3.1213293 66.508012,0.9843291 68.320407,0.35235119 68.79839,0.29223203 71.970081,0.29732809 c 3.095285,0.004973 3.693335,0.0781101 5.462069,0.66796804 2.789951,0.93042517 4.897699,2.23774547 7.092723,4.39922687 8.848221,8.713007 6.371451,23.349255 -4.857604,28.705583 -3.405158,1.624283 -7.081421,2.170269 -10.611106,1.575926 z"
     id="path4651"
     inkscape:connector-curvature="0" />
  <path
     style="fill:#32ab20;fill-opacity:1;stroke-width:0.49655172"
     d="M 0.25987161,82.626995 C 0.41258411,60.349041 0.436634,59.870436 1.5035827,57.876533 c 1.4064485,-2.628358 4.1029356,-4.975898 6.4708537,-5.633475 1.1047,-0.306777 7.6632116,-0.522008 15.9563536,-0.523639 13.220126,-0.0026 14.058192,0.05034 13.712246,0.866196 -1.617565,3.814763 -1.680716,4.555585 -1.703716,19.986207 -0.01282,8.602759 -0.169525,19.495862 -0.348228,24.206897 l -0.324915,8.565521 H 17.685162 0.10414793 Z"
     id="path890"
     inkscape:connector-curvature="0" />
  <path
     style="fill:#32ab20;fill-opacity:1;stroke-width:0.49655172"
     d="m 21.767319,43.131698 c -2.756119,-1.321296 -5.932824,-4.541269 -6.999974,-7.095317 -0.927822,-2.22059 -0.888035,-7.726527 0.07249,-10.032232 0.969356,-2.326889 3.849546,-5.335679 6.430928,-6.718065 2.806717,-1.503059 8.610603,-1.49996 11.454561,0.0061 2.404948,1.27359 5.499822,4.570039 6.469551,6.890925 0.927822,2.220591 0.888035,7.726527 -0.07249,10.032232 -0.979786,2.351928 -3.877056,5.361337 -6.430928,6.679838 -3.117231,1.609349 -7.846899,1.711745 -10.924138,0.236503 z"
     id="path892"
     inkscape:connector-curvature="0" />
  <path
     style="fill:#32ab20;fill-opacity:1;stroke-width:0.49655172"
     d="m 108.40677,84.364926 c -0.009,-21.869767 -0.37511,-28.540284 -1.70688,-31.115636 l -0.79256,-1.53264 h 14.04362 c 7.72399,0 14.80476,0.218293 15.73505,0.485096 2.59259,0.743547 5.19958,2.78228 6.53165,5.107935 l 1.20484,2.10352 0.14724,22.965518 0.14723,22.965521 H 126.06628 108.4156 Z"
     id="path894"
     inkscape:connector-curvature="0" />
  <path
     style="fill:#32ab20;fill-opacity:1;stroke-width:0.49655172"
     d="m 113.3779,43.804425 c -6.0113,-1.828553 -9.81482,-7.375786 -9.31623,-13.587206 0.55985,-6.974599 5.30129,-11.655973 12.29875,-12.14296 2.92585,-0.203623 3.52933,-0.06802 6.45518,1.450463 6.88683,3.574197 9.27777,11.149329 5.63283,17.846287 -2.90722,5.341513 -9.46171,8.139543 -15.07053,6.433416 z"
     id="path896"
     inkscape:connector-curvature="0" />
</svg>
